<?xml version="1.0" encoding="UTF-8" standalone="no"?>
<svg width="400" height="500" viewBox="0 0 400 500" xmlns="http://www.w3.org/2000/svg" xmlns:xlink="http://www.w3.org/1999/xlink">
  <rect width="100%" height="100%" fill="#f9f9f9"/>
  
  <!-- Customer Name -->
  <text x="20" y="40" font-size="14" font-family="Arial">Customer Name</text>
  <rect x="20" y="50" width="360" height="30" fill="#fff" stroke="#ccc" rx="5"/>
  
  <!-- Phone Number -->
  <text x="20" y="100" font-size="14" font-family="Arial">Phone Number</text>
  <rect x="20" y="110" width="360" height="30" fill="#fff" stroke="#ccc" rx="5"/>
  
  <!-- Email Address -->
  <text x="20" y="160" font-size="14" font-family="Arial">Email Address</text>
  <rect x="20" y="170" width="360" height="30" fill="#fff" stroke="#ccc" rx="5"/>
  
  <!-- Start Date -->
  <text x="20" y="220" font-size="14" font-family="Arial">Start Date</text>
  <rect x="20" y="230" width="360" height="30" fill="#fff" stroke="#ccc" rx="5"/>
  
  <!-- End Date -->
  <text x="20" y="280" font-size="14" font-family="Arial">End Date</text>
  <rect x="20" y="290" width="360" height="30" fill="#fff" stroke="#ccc" rx="5"/>
  
  <!-- Start Time -->
  <text x="20" y="340" font-size="14" font-family="Arial">Start Time</text>
  <rect x="20" y="350" width="360" height="30" fill="#fff" stroke="#ccc" rx="5"/>
  
  <!-- Number of Hours -->
  <text x="20" y="400" font-size="14" font-family="Arial">Number of Hours</text>
  <rect x="20" y="410" width="360" height="30" fill="#fff" stroke="#ccc" rx="5"/>
  
  <!-- Buttons -->
  <rect x="20" y="460" width="100" height="30" fill="#007bff" rx="5"/>
  <text x="30" y="480" font-size="14" font-family="Arial" fill="#fff">Check Date</text>
  
  <rect x="140" y="460" width="100" height="30" fill="#28a745" rx="5"/>
  <text x="165" y="480" font-size="14" font-family="Arial" fill="#fff">Book Now</text>
  
  <rect x="260" y="460" width="100" height="30" fill="#dc3545" rx="5"/>
  <text x="285" y="480" font-size="14" font-family="Arial" fill="#fff">Go Back</text>
</svg>
